<svg width="40" height="40" viewBox="0 0 40 40" fill="none" xmlns="http://www.w3.org/2000/svg">
<path d="M12.1258 35.9037C11.3832 35.9037 10.7551 35.6425 10.2415 35.1199C9.72801 34.5973 9.47124 33.9625 9.47124 33.2155C9.47124 32.4684 9.73089 31.8365 10.2502 31.3199C10.7695 30.8032 11.4004 30.5448 12.1428 30.5448C12.8852 30.5448 13.5161 30.8061 14.0353 31.3287C14.5545 31.8513 14.8141 32.4861 14.8141 33.2331C14.8141 33.9802 14.5528 34.612 14.0302 35.1287C13.5077 35.6454 12.8729 35.9037 12.1258 35.9037ZM28.2796 35.9037C27.537 35.9037 26.9089 35.6425 26.3954 35.1199C25.8818 34.5973 25.625 33.9625 25.625 33.2155C25.625 32.4684 25.8847 31.8365 26.404 31.3199C26.9233 30.8032 27.5542 30.5448 28.2966 30.5448C29.039 30.5448 29.6699 30.8061 30.1891 31.3287C30.7083 31.8513 30.968 32.4861 30.968 33.2331C30.968 33.9802 30.7066 34.612 30.184 35.1287C29.6615 35.6454 29.0266 35.9037 28.2796 35.9037ZM8.73403 7.05767H31.8512C32.5322 7.05767 33.0472 7.35201 33.3963 7.94071C33.7453 8.52938 33.7532 9.12606 33.4198 9.73075L28.2974 19.0108C28.0201 19.4715 27.6642 19.8402 27.2299 20.1169C26.7956 20.3936 26.3269 20.532 25.8238 20.532H13.5L11.1987 24.7852C11.124 24.9134 11.124 25.0523 11.1987 25.2019C11.2735 25.3515 11.3911 25.4262 11.5513 25.4262H30.968V27.3172H11.8302C10.7811 27.3172 10.0236 26.955 9.55778 26.2307C9.09195 25.5063 9.09621 24.7061 9.57058 23.83L12.2533 18.9455L5.95199 5.64096H2.8302V3.75H7.17633L8.73403 7.05767Z" fill="black"/>
</svg>
