<svg width="300" height="150" viewBox="0 0 190 40" fill="none" xmlns="http://www.w3.org/2000/svg">
<path fill-rule="evenodd" clip-rule="evenodd" d="M0 40V0H40V40H0ZM5.87138 34.1286H34.1286H34.1302V5.86983H5.87138V34.1286ZM16.6595 29.454H9.58051L23.777 10.5645H30.7341L16.6595 29.454Z" fill="white"/>
<path d="M165.226 7V12.657H174.198V32.2995H180.369V12.657H189.34V7H165.226Z" fill="white"/>
<path d="M102.985 7L92.1567 32.2995H98.6423L100.314 28.3567H109.742L107.656 23.3711H102.428L105.785 15.4998L106.456 13.9141L110.399 23.3711L112.485 28.3567H112.513L114.156 32.2995H120.67L109.799 7H102.985Z" fill="white"/>
<path d="M154.597 16.4855C154.597 10.9856 150.726 7 145.598 7H133.355V32.2995H139.455V26.0139H143.926L147.726 32.2995H155.312L150.098 24.6711C152.812 23.2282 154.597 20.1283 154.597 16.4855ZM144.698 20.3569H140.498L139.441 18.614V12.657H144.726C146.769 12.657 148.44 14.3998 148.44 16.4855C148.455 18.614 146.783 20.3569 144.698 20.3569Z" fill="white"/>
<path d="M79.4424 7H71.7711L62.0999 18.1283V7H56V32.2995H62.0999V26.6139L64.757 23.6996L76.7996 10.0856L79.4424 7Z" fill="white"/>
<path d="M67.7137 23.4997L73.585 32.2995H81.4991L71.9993 18.8569L67.7137 23.4997Z" fill="white"/>
</svg>
